<?xml version="1.0" encoding="UTF-8"?>
<!-- Generator: Adobe Illustrator 23.0.0, SVG Export Plug-In . SVG Version: 6.00 Build 0)  -->
<svg xmlns="http://www.w3.org/2000/svg" xmlns:xlink="http://www.w3.org/1999/xlink" version="1.1" id="Layer_1" x="0px" y="0px" viewBox="0 0 160.2 58.6" style="enable-background:new 0 0 160.2 58.6;" xml:space="preserve">
<style type="text/css">
	.st0{fill:none;}
	.st1{fill:#FFE600;}
</style>
<g>
	<path class="st0" d="M126.7,22c-1.4,0-2.5,0.3-3.3,0.8c-0.8,0.5-1.2,1.2-1.2,2c0,0.8,0.4,1.4,1.1,1.7s1.9,0.7,3.4,1   c0.7,0.2,1.4,0.4,2,0.5l2.8-5.3c-0.1,0-0.2,0-0.3-0.1C129.7,22.3,128.2,22,126.7,22z"></path>
	<path class="st0" d="M66.1,22.5c-0.9-0.4-1.7-0.6-2.6-0.6c-0.9,0-1.8,0.2-2.6,0.6c-0.9,0.4-1.6,1-2.2,1.9c-0.6,0.9-0.9,1.9-1,3.2   h11.5c-0.1-1.3-0.4-2.4-1-3.2C67.6,23.5,66.9,22.9,66.1,22.5z"></path>
	<path class="st1" d="M130.5,33.5c0-0.6-0.3-1-1-1.4c-0.5-0.3-1.4-0.5-2.5-0.8l-2.6,4.9c0.5,0.1,1.1,0.1,1.7,0.1   C129.1,36.2,130.5,35.3,130.5,33.5z"></path>
	<path class="st1" d="M143.5,0l-10.7,20.2c0,0,0.1,0.1,0.1,0.1c0.2,0.3,0.3,0.6,0.3,0.9c0,0.4-0.1,0.8-0.5,1.1   c-0.3,0.3-0.7,0.5-1.1,0.5c-0.1,0-0.1,0-0.2,0l-2.8,5.3c0.7,0.2,1.3,0.4,1.8,0.6c1,0.4,1.8,1,2.5,1.8c0.7,0.8,1.1,1.9,1.1,3.2   c0,1.7-0.7,3-2,4.1c-1.3,1.1-3.2,1.6-5.6,1.6c-1.3,0-2.5-0.1-3.6-0.4L114.5,55c15.2,8,34.1,2.2,42.1-13C164.6,26.8,158.8,8,143.5,0   z M141.3,40c-1.4,0-2.6-1.2-2.6-2.6s1.2-2.6,2.6-2.6s2.6,1.2,2.6,2.6S142.7,40,141.3,40z"></path>
	<path d="M27,19.1c-0.4,0-0.7,0.1-1,0.3c-0.3,0.2-0.5,0.5-0.6,0.8l-4.6,15l-4.6-14.7c-0.1-0.4-0.4-0.8-0.7-1s-0.7-0.4-1.2-0.4   s-0.9,0.1-1.2,0.4c-0.3,0.3-0.6,0.6-0.7,1L7.9,35.1l-4.6-15c-0.1-0.3-0.3-0.6-0.6-0.8c-0.3-0.2-0.6-0.3-1-0.3   c-0.5,0-0.9,0.2-1.3,0.5C0.2,19.9,0,20.3,0,20.8c0,0.2,0,0.4,0.1,0.7l5.6,16.2c0.1,0.5,0.4,0.9,0.9,1.2c0.4,0.3,0.9,0.5,1.4,0.5   c0.5,0,1-0.2,1.4-0.5c0.4-0.3,0.7-0.7,0.9-1.2l4.2-12.9l4.1,12.9c0.2,0.5,0.5,0.9,0.9,1.2c0.4,0.3,0.9,0.5,1.4,0.5   c0.5,0,1-0.2,1.4-0.5c0.4-0.3,0.7-0.7,0.9-1.2l5.5-16.2c0.1-0.2,0.1-0.5,0.1-0.7c0-0.5-0.2-0.9-0.5-1.2   C27.9,19.2,27.5,19.1,27,19.1z"></path>
	<path d="M46.8,19.9c-1.1-0.7-2.3-1-3.7-1c-1.6,0-2.9,0.3-4.1,1c-1.2,0.7-2.2,1.5-3.2,2.6v-1.6c0-0.5-0.2-0.9-0.5-1.3   C34.9,19.2,34.5,19,34,19c-0.5,0-0.9,0.2-1.3,0.5c-0.3,0.4-0.5,0.8-0.5,1.3v16.8c0,0.5,0.2,0.9,0.5,1.2c0.3,0.3,0.8,0.5,1.3,0.5   c0.5,0,0.9-0.2,1.3-0.5c0.4-0.3,0.5-0.8,0.5-1.2V25.9c0.9-1.1,1.9-2,2.9-2.7c1-0.7,2.2-1,3.5-1c2.9,0,4.3,1.6,4.3,4.8v10.7   c0,0.5,0.2,0.9,0.5,1.2c0.3,0.3,0.8,0.5,1.3,0.5c0.5,0,0.9-0.2,1.3-0.5c0.4-0.3,0.5-0.8,0.5-1.2V26.5c0-1.4-0.3-2.7-0.9-3.9   C48.7,21.5,47.9,20.6,46.8,19.9z"></path>
	<path d="M68.4,20.2c-1.4-0.9-3.1-1.3-5-1.3c-2,0-3.8,0.5-5.2,1.4c-1.4,1-2.4,2.2-3.1,3.8c-0.7,1.6-1,3.3-1,5.1   c0,3.3,0.9,5.8,2.7,7.6c1.8,1.8,4.3,2.7,7.5,2.7c1.6,0,2.8-0.1,3.8-0.4c1-0.3,2-0.7,3-1.3c0.7-0.4,1-0.9,1-1.4   c0-0.4-0.2-0.8-0.5-1.1c-0.3-0.3-0.7-0.4-1.1-0.4c-0.3,0-0.5,0.1-0.7,0.2c-0.8,0.4-1.6,0.7-2.4,0.9c-0.8,0.2-1.8,0.3-2.9,0.3   c-2,0-3.7-0.5-4.8-1.5c-1.2-1-1.8-2.4-2-4.3H71c0.5,0,1-0.2,1.3-0.5c0.3-0.3,0.5-0.8,0.5-1.2c0-1.8-0.4-3.4-1.1-4.9   C70.9,22.3,69.9,21.1,68.4,20.2z M57.7,27.6c0.1-1.3,0.4-2.4,1-3.2c0.6-0.9,1.3-1.5,2.2-1.9c0.9-0.4,1.7-0.6,2.6-0.6   c0.9,0,1.8,0.2,2.6,0.6c0.9,0.4,1.6,1,2.2,1.9c0.6,0.9,0.9,1.9,1,3.2H57.7z"></path>
	<path d="M92.6,20.7c0-0.5-0.2-0.9-0.5-1.2c-0.3-0.3-0.8-0.5-1.3-0.5c-0.6,0-1.1,0.2-1.4,0.7L84,26.4l-5.5-6.7   c-0.3-0.4-0.8-0.7-1.4-0.7c-0.5,0-0.9,0.2-1.3,0.5c-0.3,0.3-0.5,0.8-0.5,1.3c0,0.4,0.1,0.8,0.4,1.1l6.1,7.4l-6.1,7.1   c-0.3,0.3-0.4,0.7-0.4,1.1c0,0.5,0.1,1,0.5,1.3c0.3,0.3,0.7,0.5,1.3,0.5c0.6,0,1.1-0.3,1.5-0.8l5.2-6.6l5.5,6.6   c0.3,0.5,0.8,0.7,1.4,0.7c0.6,0,1-0.2,1.3-0.5c0.3-0.4,0.5-0.8,0.5-1.3c0-0.5-0.1-0.8-0.4-1.1L86,29.1l6.2-7.3   C92.4,21.5,92.6,21.1,92.6,20.7z"></path>
	<path d="M114.5,20.8c0-0.5-0.2-0.9-0.5-1.2c-0.3-0.3-0.8-0.5-1.3-0.5c-0.5,0-0.9,0.2-1.3,0.5c-0.4,0.3-0.5,0.8-0.5,1.2v11.7   c-0.9,1.1-1.9,2-2.9,2.7c-1,0.7-2.2,1-3.5,1c-2.9,0-4.3-1.6-4.3-4.8V20.8c0-0.5-0.2-0.9-0.5-1.2c-0.3-0.3-0.7-0.5-1.3-0.5   c-0.5,0-0.9,0.2-1.3,0.5c-0.4,0.3-0.5,0.8-0.5,1.2v11.1c0,1.4,0.3,2.7,0.9,3.9c0.5,1.2,1.4,2.1,2.4,2.8c1.1,0.7,2.3,1,3.7,1   c1.6,0,2.9-0.3,4.1-1c1.2-0.7,2.2-1.5,3.2-2.6v1.6c0,0.5,0.2,0.9,0.5,1.3c0.4,0.4,0.8,0.5,1.3,0.5s0.9-0.2,1.3-0.5   c0.3-0.4,0.5-0.8,0.5-1.3V20.8z"></path>
	<path d="M132,37.9c1.3-1.1,2-2.5,2-4.1c0-1.3-0.4-2.4-1.1-3.2c-0.7-0.8-1.5-1.4-2.5-1.8c-0.5-0.2-1.1-0.4-1.8-0.6   c-0.6-0.2-1.2-0.4-2-0.5c-1.5-0.3-2.7-0.7-3.4-1s-1.1-0.9-1.1-1.7c0-0.8,0.4-1.4,1.2-2c0.8-0.5,1.9-0.8,3.3-0.8   c1.5,0,3,0.3,4.5,0.7c0.1,0,0.2,0,0.3,0.1c0.1,0,0.1,0,0.2,0c0.4,0,0.8-0.1,1.1-0.5c0.3-0.3,0.5-0.7,0.5-1.1c0-0.3-0.1-0.6-0.3-0.9   c0-0.1-0.1-0.1-0.1-0.1c-0.2-0.2-0.4-0.4-0.7-0.5c-1.8-0.7-3.7-1-5.7-1c-2.4,0-4.4,0.6-5.7,1.7c-1.3,1.2-2,2.6-2,4.5   c0,1.3,0.4,2.4,1.1,3.1c0.7,0.8,1.6,1.4,2.6,1.8c1,0.4,2.3,0.8,3.8,1.1c0.3,0.1,0.5,0.1,0.8,0.2c1.1,0.3,2,0.6,2.5,0.8   c0.7,0.3,1,0.8,1,1.4c0,1.8-1.5,2.8-4.4,2.8c-0.6,0-1.2,0-1.7-0.1c-0.4-0.1-0.8-0.1-1.1-0.2c-0.8-0.2-1.7-0.5-2.5-0.9   c-0.2-0.1-0.5-0.2-0.7-0.2c-0.5,0-0.8,0.2-1.1,0.5c-0.3,0.3-0.4,0.7-0.4,1.1c0,0.5,0.2,1,0.7,1.3c1.1,0.6,2.3,1.1,3.6,1.4   c1.1,0.3,2.3,0.4,3.6,0.4C128.8,39.5,130.7,39,132,37.9z"></path>
	<path d="M141.3,34.8c-1.4,0-2.6,1.2-2.6,2.6s1.2,2.6,2.6,2.6s2.6-1.2,2.6-2.6S142.7,34.8,141.3,34.8z"></path>
</g>
</svg>
